<?xml version="1.0" encoding="UTF-8"?>
<!DOCTYPE svg PUBLIC "-//W3C//DTD SVG 1.1//EN" "http://www.w3.org/Graphics/SVG/1.1/DTD/svg11.dtd">
<!-- Creator: CorelDRAW 2020 (64 Bit) -->
<svg xmlns="http://www.w3.org/2000/svg" xml:space="preserve" width="118.533mm" height="46.5666mm" version="1.1" style="shape-rendering:geometricPrecision; text-rendering:geometricPrecision; image-rendering:optimizeQuality; fill-rule:evenodd; clip-rule:evenodd"
viewBox="0 0 11853.32 4656.66"
 xmlns:xlink="http://www.w3.org/1999/xlink"
 xmlns:xodm="http://www.corel.com/coreldraw/odm/2003">
 <defs>
  <style type="text/css">
   <![CDATA[
    .str1 {stroke:#FEFEFE;stroke-width:20;stroke-miterlimit:22.9256}
    .str0 {stroke:#FFA000;stroke-width:20;stroke-miterlimit:22.9256}
    .str2 {stroke:#FFA100;stroke-width:20;stroke-miterlimit:22.9256}
    .str3 {stroke:white;stroke-width:20;stroke-miterlimit:22.9256}
    .fil1 {fill:#FFA000}
    .fil4 {fill:#373435;fill-rule:nonzero}
    .fil0 {fill:black;fill-rule:nonzero}
    .fil2 {fill:#FEFEFE;fill-rule:nonzero}
    .fil5 {fill:white;fill-rule:nonzero}
    .fil3 {fill:url(#id0)}
   ]]>
  </style>
  <linearGradient id="id0" gradientUnits="userSpaceOnUse" x1="550.17" y1="1793.98" x2="3151.48" y2="3602.72">
   <stop offset="0" style="stop-opacity:1; stop-color:#001D93"/>
   <stop offset="1" style="stop-opacity:1; stop-color:#0362FB"/>
  </linearGradient>
 </defs>
 <g id="Camada_x0020_1">
  <metadata id="CorelCorpID_0Corel-Layer"/>
  <path class="fil0" d="M5831.25 4284.88c0,5.79 -1.89,10.58 -5.68,14.36 -3.78,3.79 -8.57,5.68 -14.36,5.68 -5.79,0 -10.58,-1.89 -14.36,-5.68 -3.79,-3.78 -5.68,-8.57 -5.68,-14.36l0 -307.29c0,-5.79 1.89,-10.58 5.68,-14.37 3.78,-3.78 8.57,-5.68 14.36,-5.68 5.79,0 10.58,1.9 14.36,5.68 3.79,3.79 5.68,8.58 5.68,14.37l0 307.29zm-20.04 -372.09c-8.91,0 -15.81,-2.12 -20.71,-6.35 -4.9,-4.23 -7.35,-10.35 -7.35,-18.37l0 -6.68c0,-8.02 2.56,-14.14 7.68,-18.37 5.13,-4.23 12.14,-6.35 21.05,-6.35 17.81,0 26.72,8.24 26.72,24.72l0 6.68c0,8.02 -2.34,14.14 -7.02,18.37 -4.67,4.23 -11.46,6.35 -20.37,6.35zm285.25 42.75c41.42,0 71.81,12.14 91.19,36.41 19.37,24.27 29.06,56.45 29.06,96.53l0 196.4c0,5.79 -2.01,10.58 -6.02,14.36 -4.01,3.79 -8.68,5.68 -14.03,5.68 -5.79,0 -10.57,-1.89 -14.36,-5.68 -3.78,-3.78 -5.68,-8.57 -5.68,-14.36l0 -194.4c0,-28.95 -7.23,-52.44 -21.71,-70.47 -14.47,-18.04 -36.85,-27.06 -67.13,-27.06 -19.15,0 -37.3,4.45 -54.45,13.36 -17.15,8.91 -31.06,20.82 -41.75,35.74 -10.69,14.92 -16.03,31.06 -16.03,48.43l0 194.4c0,5.79 -1.9,10.58 -5.68,14.36 -3.79,3.79 -8.58,5.68 -14.36,5.68 -5.79,0 -10.58,-1.89 -14.37,-5.68 -3.78,-3.78 -5.68,-8.57 -5.68,-14.36l0 -299.28c0,-5.79 1.9,-10.58 5.68,-14.36 3.79,-3.79 8.58,-5.68 14.37,-5.68 5.78,0 10.57,1.89 14.36,5.68 3.78,3.78 5.68,8.57 5.68,14.36l0 36.74c12.02,-19.15 29.28,-35.07 51.77,-47.76 22.49,-12.69 45.54,-19.04 69.14,-19.04zm386.12 0c41.42,0 71.81,12.14 91.19,36.41 19.37,24.27 29.06,56.45 29.06,96.53l0 196.4c0,5.79 -2.01,10.58 -6.02,14.36 -4.01,3.79 -8.68,5.68 -14.03,5.68 -5.79,0 -10.57,-1.89 -14.36,-5.68 -3.78,-3.78 -5.68,-8.57 -5.68,-14.36l0 -194.4c0,-28.95 -7.23,-52.44 -21.71,-70.47 -14.47,-18.04 -36.85,-27.06 -67.13,-27.06 -19.15,0 -37.3,4.45 -54.45,13.36 -17.15,8.91 -31.06,20.82 -41.75,35.74 -10.69,14.92 -16.03,31.06 -16.03,48.43l0 194.4c0,5.79 -1.9,10.58 -5.68,14.36 -3.79,3.79 -8.58,5.68 -14.36,5.68 -5.79,0 -10.58,-1.89 -14.37,-5.68 -3.78,-3.78 -5.68,-8.57 -5.68,-14.36l0 -299.28c0,-5.79 1.9,-10.58 5.68,-14.36 3.79,-3.79 8.58,-5.68 14.37,-5.68 5.78,0 10.57,1.89 14.36,5.68 3.78,3.78 5.68,8.57 5.68,14.36l0 36.74c12.02,-19.15 29.28,-35.07 51.77,-47.76 22.49,-12.69 45.54,-19.04 69.14,-19.04zm540.43 178.36c0,33.41 -7.34,63.69 -22.04,90.86 -14.7,27.16 -34.96,48.43 -60.79,63.79 -25.83,15.37 -54.56,23.05 -86.18,23.05 -31.62,0 -60.34,-7.68 -86.17,-23.05 -25.83,-15.36 -46.1,-36.63 -60.79,-63.79 -14.7,-27.17 -22.05,-57.45 -22.05,-90.86 0,-33.4 7.35,-63.68 22.05,-90.85 14.69,-27.16 34.96,-48.54 60.79,-64.13 25.83,-15.59 54.55,-23.38 86.17,-23.38 31.62,0 60.35,7.79 86.18,23.38 25.83,15.59 46.09,36.97 60.79,64.13 14.7,27.17 22.04,57.45 22.04,90.85zm-40.08 0c0,-26.72 -5.56,-50.77 -16.7,-72.14 -11.13,-21.38 -26.61,-38.19 -46.43,-50.44 -19.81,-12.25 -41.75,-18.37 -65.8,-18.37 -24.05,0 -45.87,6.12 -65.46,18.37 -19.6,12.25 -35.08,29.06 -46.43,50.44 -11.36,21.37 -17.04,45.42 -17.04,72.14 0,26.28 5.68,50.11 17.04,71.48 11.35,21.38 26.83,38.19 46.43,50.44 19.59,12.25 41.41,18.37 65.46,18.37 24.05,0 45.99,-6.01 65.8,-18.04 19.82,-12.02 35.3,-28.72 46.43,-50.1 11.14,-21.38 16.7,-45.42 16.7,-72.15zm376.77 -177.02c4.46,0 8.69,1.56 12.7,4.67 4,3.12 6.01,7.13 6.01,12.03 0,4.01 -0.89,7.79 -2.67,11.35l-130.94 307.3c-1.78,3.56 -4.34,6.57 -7.68,9.02 -3.34,2.45 -6.79,3.67 -10.35,3.67 -4.46,0.45 -8.47,-0.45 -12.03,-2.67 -3.56,-2.23 -6.23,-5.57 -8.01,-10.02l-131.61 -307.3c0,-0.89 -0.33,-2.22 -1,-4 -0.67,-1.79 -1,-3.57 -1,-5.35 0,-5.34 1.78,-9.91 5.34,-13.69 3.57,-3.79 8.69,-5.68 15.37,-5.68 4.01,0 7.68,1.22 11.02,3.67 3.34,2.45 5.9,5.68 7.68,9.69l113.57 270.55 114.23 -270.55c1.78,-4.01 4.34,-7.24 7.68,-9.69 3.34,-2.45 7.24,-3.45 11.69,-3zm371.43 6.68c5.79,0 10.57,2 14.36,6.01 3.78,4.01 5.68,8.91 5.68,14.7l0 300.61c0,5.79 -1.9,10.58 -5.68,14.36 -3.79,3.79 -8.57,5.68 -14.36,5.68 -5.79,0 -10.58,-1.89 -14.37,-5.68 -3.78,-3.78 -5.67,-8.57 -5.67,-14.36l0 -44.76c-11.14,20.04 -27.84,36.97 -50.11,50.77 -22.26,13.81 -46.54,20.71 -72.81,20.71 -29.84,0 -56.67,-7.79 -80.5,-23.38 -23.83,-15.59 -42.53,-36.97 -56.11,-64.13 -13.59,-27.17 -20.38,-57.67 -20.38,-91.52 0,-33.85 6.9,-64.24 20.71,-91.19 13.81,-26.94 32.62,-47.98 56.45,-63.13 23.83,-15.14 50.21,-22.71 79.16,-22.71 26.72,0 51.22,6.46 73.48,19.37 22.27,12.92 38.97,29.84 50.11,50.77l0 -41.41c0,-5.79 1.89,-10.69 5.67,-14.7 3.79,-4.01 8.58,-6.01 14.37,-6.01zm-138.95 310.63c23.15,0 43.98,-6.12 62.46,-18.37 18.48,-12.25 32.95,-29.17 43.42,-50.77 10.47,-21.6 15.7,-45.76 15.7,-72.48 0,-25.83 -5.23,-49.44 -15.7,-70.81 -10.47,-21.38 -24.94,-38.19 -43.42,-50.44 -18.48,-12.25 -39.31,-18.37 -62.46,-18.37 -23.16,0 -43.98,6.01 -62.46,18.04 -18.49,12.02 -32.96,28.61 -43.43,49.77 -10.46,21.15 -15.69,45.09 -15.69,71.81 0,26.72 5.12,50.88 15.36,72.48 10.24,21.6 24.61,38.52 43.09,50.77 18.48,12.25 39.52,18.37 63.13,18.37zm330.67 -271.89l0 223.79c0,16.93 3.11,28.39 9.35,34.41 6.23,6.01 14.47,9.01 24.72,9.01 2.67,0 6.01,-0.55 10.02,-1.67 4.01,-1.11 7.12,-1.67 9.35,-1.67 4.01,0 7.46,1.67 10.35,5.01 2.9,3.34 4.35,7.24 4.35,11.7 0,6.23 -3.57,11.46 -10.69,15.69 -7.13,4.23 -15.59,6.35 -25.39,6.35 -12.02,0 -22.71,-1.11 -32.06,-3.34 -9.36,-2.23 -18.37,-8.91 -27.06,-20.04 -8.68,-11.13 -13.02,-28.95 -13.02,-53.44l0 -225.8 -48.77 0c-5.34,0 -9.91,-1.78 -13.7,-5.34 -3.78,-3.56 -5.67,-8.02 -5.67,-13.36 0,-5.35 1.89,-9.8 5.67,-13.36 3.79,-3.57 8.36,-5.35 13.7,-5.35l48.77 0 0 -74.15c0,-5.79 1.89,-10.58 5.67,-14.36 3.79,-3.79 8.58,-5.68 14.37,-5.68 5.79,0 10.57,1.89 14.36,5.68 3.78,3.78 5.68,8.57 5.68,14.36l0 74.15 66.8 0c4.9,0 9.24,2.01 13.03,6.01 3.78,4.01 5.68,8.47 5.68,13.37 0,5.34 -1.79,9.68 -5.35,13.02 -3.56,3.34 -8.02,5.01 -13.36,5.01l-66.8 0zm198.4 282.58c0,5.79 -1.89,10.58 -5.68,14.36 -3.78,3.79 -8.57,5.68 -14.36,5.68 -5.79,0 -10.58,-1.89 -14.36,-5.68 -3.79,-3.78 -5.68,-8.57 -5.68,-14.36l0 -307.29c0,-5.79 1.89,-10.58 5.68,-14.37 3.78,-3.78 8.57,-5.68 14.36,-5.68 5.79,0 10.58,1.9 14.36,5.68 3.79,3.79 5.68,8.58 5.68,14.37l0 307.29zm-20.04 -372.09c-8.91,0 -15.81,-2.12 -20.71,-6.35 -4.9,-4.23 -7.35,-10.35 -7.35,-18.37l0 -6.68c0,-8.02 2.56,-14.14 7.68,-18.37 5.13,-4.23 12.14,-6.35 21.05,-6.35 17.81,0 26.72,8.24 26.72,24.72l0 6.68c0,8.02 -2.34,14.14 -7.02,18.37 -4.67,4.23 -11.46,6.35 -20.37,6.35zm382.11 44.09c4.46,0 8.69,1.56 12.7,4.67 4,3.12 6.01,7.13 6.01,12.03 0,4.01 -0.89,7.79 -2.67,11.35l-130.94 307.3c-1.78,3.56 -4.34,6.57 -7.68,9.02 -3.34,2.45 -6.79,3.67 -10.35,3.67 -4.46,0.45 -8.47,-0.45 -12.03,-2.67 -3.56,-2.23 -6.23,-5.57 -8.01,-10.02l-131.61 -307.3c0,-0.89 -0.33,-2.22 -1,-4 -0.67,-1.79 -1,-3.57 -1,-5.35 0,-5.34 1.78,-9.91 5.34,-13.69 3.57,-3.79 8.69,-5.68 15.37,-5.68 4.01,0 7.68,1.22 11.02,3.67 3.34,2.45 5.9,5.68 7.68,9.69l113.57 270.55 114.23 -270.55c1.78,-4.01 4.34,-7.24 7.68,-9.69 3.34,-2.45 7.24,-3.45 11.69,-3zm380.78 157.65c0,5.35 -2,9.91 -6.01,13.7 -4.01,3.78 -8.68,5.67 -14.03,5.67l-252.51 0c0,26.73 5.45,50.66 16.36,71.82 10.91,21.15 26.5,37.85 46.77,50.1 20.26,12.25 44.2,18.37 71.81,18.37 21.38,0 40.53,-4.45 57.45,-13.36 16.92,-8.91 30.51,-20.26 40.75,-34.07 4.9,-4.01 9.57,-6.01 14.03,-6.01 4.45,0 8.46,1.78 12.02,5.34 3.57,3.57 5.35,7.57 5.35,12.03 0,4.9 -2.23,9.57 -6.68,14.03 -14.25,17.36 -32.18,31.62 -53.78,42.75 -21.6,11.13 -44.42,16.7 -68.47,16.7 -34.3,0 -64.58,-7.35 -90.85,-22.04 -26.28,-14.7 -46.77,-35.3 -61.46,-61.8 -14.7,-26.5 -22.05,-57.11 -22.05,-91.85 0,-36.52 7.24,-68.47 21.71,-95.86 14.48,-27.39 33.74,-48.32 57.79,-62.8 24.05,-14.47 49.65,-21.71 76.82,-21.71 26.72,0 51.77,6.24 75.15,18.71 23.38,12.47 42.42,30.72 57.12,54.77 14.7,24.05 22.27,52.56 22.71,85.51zm-154.98 -120.24c-25.83,0 -49.77,8.9 -71.81,26.72 -22.05,17.81 -36.19,43.42 -42.42,76.82l227.8 0 0 -5.34c-2.23,-20.04 -8.91,-37.52 -20.05,-52.44 -11.13,-14.92 -25.05,-26.28 -41.75,-34.07 -16.7,-7.8 -33.96,-11.69 -51.77,-11.69zm464.27 290.59c0,5.79 -1.89,10.58 -5.67,14.36 -3.79,3.79 -8.58,5.68 -14.37,5.68 -5.79,0 -10.57,-1.89 -14.36,-5.68 -3.78,-3.78 -5.68,-8.57 -5.68,-14.36l0 -454.26c0,-5.79 1.9,-10.58 5.68,-14.36 3.79,-3.79 8.57,-5.68 14.36,-5.68 5.79,0 10.58,1.89 14.37,5.68 3.78,3.78 5.67,8.57 5.67,14.36l0 454.26zm391.47 -170.35c0,5.35 -2,9.91 -6.01,13.7 -4.01,3.78 -8.68,5.67 -14.03,5.67l-252.51 0c0,26.73 5.45,50.66 16.36,71.82 10.91,21.15 26.5,37.85 46.77,50.1 20.26,12.25 44.2,18.37 71.81,18.37 21.38,0 40.53,-4.45 57.45,-13.36 16.92,-8.91 30.51,-20.26 40.75,-34.07 4.9,-4.01 9.57,-6.01 14.03,-6.01 4.45,0 8.46,1.78 12.02,5.34 3.57,3.57 5.35,7.57 5.35,12.03 0,4.9 -2.23,9.57 -6.68,14.03 -14.25,17.36 -32.18,31.62 -53.78,42.75 -21.6,11.13 -44.42,16.7 -68.47,16.7 -34.3,0 -64.58,-7.35 -90.85,-22.04 -26.28,-14.7 -46.77,-35.3 -61.46,-61.8 -14.7,-26.5 -22.05,-57.11 -22.05,-91.85 0,-36.52 7.24,-68.47 21.71,-95.86 14.48,-27.39 33.74,-48.32 57.79,-62.8 24.05,-14.47 49.65,-21.71 76.82,-21.71 26.72,0 51.77,6.24 75.15,18.71 23.38,12.47 42.42,30.72 57.12,54.77 14.7,24.05 22.27,52.56 22.71,85.51zm-154.98 -120.24c-25.83,0 -49.77,8.9 -71.81,26.72 -22.05,17.81 -36.19,43.42 -42.42,76.82l227.8 0 0 -5.34c-2.23,-20.04 -8.91,-37.52 -20.05,-52.44 -11.13,-14.92 -25.05,-26.28 -41.75,-34.07 -16.7,-7.8 -33.96,-11.69 -51.77,-11.69zm517.73 -30.73c5.79,0 10.57,2 14.36,6.01 3.78,4.01 5.68,8.91 5.68,14.7l0 300.61c0,5.79 -1.9,10.58 -5.68,14.36 -3.79,3.79 -8.57,5.68 -14.36,5.68 -5.79,0 -10.58,-1.89 -14.37,-5.68 -3.78,-3.78 -5.67,-8.57 -5.67,-14.36l0 -44.76c-11.14,20.04 -27.84,36.97 -50.11,50.77 -22.26,13.81 -46.54,20.71 -72.81,20.71 -29.84,0 -56.67,-7.79 -80.5,-23.38 -23.83,-15.59 -42.53,-36.97 -56.11,-64.13 -13.59,-27.17 -20.38,-57.67 -20.38,-91.52 0,-33.85 6.9,-64.24 20.71,-91.19 13.81,-26.94 32.62,-47.98 56.45,-63.13 23.83,-15.14 50.21,-22.71 79.16,-22.71 26.72,0 51.22,6.46 73.48,19.37 22.27,12.92 38.97,29.84 50.11,50.77l0 -41.41c0,-5.79 1.89,-10.69 5.67,-14.7 3.79,-4.01 8.58,-6.01 14.37,-6.01zm-138.95 310.63c23.15,0 43.98,-6.12 62.46,-18.37 18.48,-12.25 32.95,-29.17 43.42,-50.77 10.47,-21.6 15.7,-45.76 15.7,-72.48 0,-25.83 -5.23,-49.44 -15.7,-70.81 -10.47,-21.38 -24.94,-38.19 -43.42,-50.44 -18.48,-12.25 -39.31,-18.37 -62.46,-18.37 -23.16,0 -43.98,6.01 -62.46,18.04 -18.49,12.02 -32.96,28.61 -43.43,49.77 -10.46,21.15 -15.69,45.09 -15.69,71.81 0,26.72 5.12,50.88 15.36,72.48 10.24,21.6 24.61,38.52 43.09,50.77 18.48,12.25 39.52,18.37 63.13,18.37zm423.52 -318.65c8.91,0 16.93,1.78 24.05,5.34 7.13,3.57 10.69,8.91 10.69,16.04 0,6.23 -1.78,11.24 -5.34,15.03 -3.57,3.78 -7.8,5.68 -12.7,5.68 -2.22,0 -6.56,-1.12 -13.02,-3.34 -6.46,-2.23 -12.58,-3.34 -18.37,-3.34 -16.48,0 -32.85,6.34 -49.1,19.03 -16.26,12.7 -29.62,29.06 -40.09,49.1 -10.46,20.05 -15.69,40.31 -15.69,60.8l0 165c0,5.79 -1.9,10.58 -5.68,14.36 -3.79,3.79 -8.58,5.68 -14.36,5.68 -5.79,0 -10.58,-1.89 -14.37,-5.68 -3.78,-3.78 -5.68,-8.57 -5.68,-14.36l0 -299.28c0,-5.79 1.9,-10.58 5.68,-14.36 3.79,-3.79 8.58,-5.68 14.37,-5.68 5.78,0 10.57,1.89 14.36,5.68 3.78,3.78 5.68,8.57 5.68,14.36l0 58.79c10.24,-25.39 25.72,-46.43 46.42,-63.13 20.71,-16.7 45.1,-25.27 73.15,-25.72zm258.53 0c41.42,0 71.81,12.14 91.19,36.41 19.37,24.27 29.06,56.45 29.06,96.53l0 196.4c0,5.79 -2.01,10.58 -6.02,14.36 -4.01,3.79 -8.68,5.68 -14.03,5.68 -5.79,0 -10.57,-1.89 -14.36,-5.68 -3.78,-3.78 -5.68,-8.57 -5.68,-14.36l0 -194.4c0,-28.95 -7.23,-52.44 -21.71,-70.47 -14.47,-18.04 -36.85,-27.06 -67.13,-27.06 -19.15,0 -37.3,4.45 -54.45,13.36 -17.15,8.91 -31.06,20.82 -41.75,35.74 -10.69,14.92 -16.03,31.06 -16.03,48.43l0 194.4c0,5.79 -1.9,10.58 -5.68,14.36 -3.79,3.79 -8.58,5.68 -14.36,5.68 -5.79,0 -10.58,-1.89 -14.37,-5.68 -3.78,-3.78 -5.68,-8.57 -5.68,-14.36l0 -299.28c0,-5.79 1.9,-10.58 5.68,-14.36 3.79,-3.79 8.58,-5.68 14.37,-5.68 5.78,0 10.57,1.89 14.36,5.68 3.78,3.78 5.68,8.57 5.68,14.36l0 36.74c12.02,-19.15 29.28,-35.07 51.77,-47.76 22.49,-12.69 45.54,-19.04 69.14,-19.04zm263.87 329.34c0,5.79 -1.89,10.58 -5.68,14.36 -3.78,3.79 -8.57,5.68 -14.36,5.68 -5.79,0 -10.58,-1.89 -14.36,-5.68 -3.79,-3.78 -5.68,-8.57 -5.68,-14.36l0 -307.29c0,-5.79 1.89,-10.58 5.68,-14.37 3.78,-3.78 8.57,-5.68 14.36,-5.68 5.79,0 10.58,1.9 14.36,5.68 3.79,3.79 5.68,8.58 5.68,14.37l0 307.29zm-20.04 -372.09c-8.91,0 -15.81,-2.12 -20.71,-6.35 -4.9,-4.23 -7.35,-10.35 -7.35,-18.37l0 -6.68c0,-8.02 2.56,-14.14 7.68,-18.37 5.13,-4.23 12.14,-6.35 21.05,-6.35 17.81,0 26.72,8.24 26.72,24.72l0 6.68c0,8.02 -2.34,14.14 -7.02,18.37 -4.67,4.23 -11.46,6.35 -20.37,6.35zm285.25 42.75c41.42,0 71.81,12.14 91.19,36.41 19.37,24.27 29.06,56.45 29.06,96.53l0 196.4c0,5.79 -2.01,10.58 -6.02,14.36 -4.01,3.79 -8.68,5.68 -14.03,5.68 -5.79,0 -10.57,-1.89 -14.36,-5.68 -3.78,-3.78 -5.68,-8.57 -5.68,-14.36l0 -194.4c0,-28.95 -7.23,-52.44 -21.71,-70.47 -14.47,-18.04 -36.85,-27.06 -67.13,-27.06 -19.15,0 -37.3,4.45 -54.45,13.36 -17.15,8.91 -31.06,20.82 -41.75,35.74 -10.69,14.92 -16.03,31.06 -16.03,48.43l0 194.4c0,5.79 -1.9,10.58 -5.68,14.36 -3.79,3.79 -8.58,5.68 -14.36,5.68 -5.79,0 -10.58,-1.89 -14.37,-5.68 -3.78,-3.78 -5.68,-8.57 -5.68,-14.36l0 -299.28c0,-5.79 1.9,-10.58 5.68,-14.36 3.79,-3.79 8.58,-5.68 14.37,-5.68 5.78,0 10.57,1.89 14.36,5.68 3.78,3.78 5.68,8.57 5.68,14.36l0 36.74c12.02,-19.15 29.28,-35.07 51.77,-47.76 22.49,-12.69 45.54,-19.04 69.14,-19.04zm513.71 8.02c5.79,0 10.58,1.89 14.37,5.67 3.78,3.79 5.67,8.8 5.67,15.04l0 289.25c0,34.74 -7.23,64.47 -21.71,89.18 -14.47,24.72 -34.29,43.54 -59.45,56.45 -25.16,12.92 -54,19.38 -86.51,19.38 -15.59,0 -31.96,-2.01 -49.1,-6.02 -17.15,-4 -31.84,-9.13 -44.09,-15.36 -12.25,-6.24 -19.26,-12.69 -21.04,-19.37 -3.12,-3.12 -4.68,-6.68 -4.68,-10.69 0,-4.46 2,-8.02 6.01,-10.69 1.78,-1.34 4.01,-2 6.68,-2 2.67,0 7.8,1.55 15.37,4.67l14.03 6.01c27.61,10.69 53.44,16.04 77.49,16.04 39.63,0 70.7,-11.25 93.19,-33.74 22.49,-22.49 33.73,-52.88 33.73,-91.19l0 -41.41c-11.13,24.05 -28.72,42.86 -52.77,56.45 -24.05,13.58 -49.21,20.37 -75.49,20.37 -30.73,0 -58.45,-7.68 -83.17,-23.05 -24.72,-15.36 -44.2,-36.63 -58.45,-63.79 -14.25,-27.17 -21.38,-57.68 -21.38,-91.52 0,-33.41 7.13,-63.69 21.38,-90.86 14.25,-27.16 33.73,-48.43 58.45,-63.79 24.72,-15.37 52.22,-23.05 82.5,-23.05 28.06,0 53.78,7.01 77.16,21.04 23.38,14.03 40.64,30.84 51.77,50.44l0 -42.75c0,-5.79 1.9,-10.69 5.68,-14.7 3.79,-4.01 8.57,-6.01 14.36,-6.01zm-144.96 310.63c24.5,0 46.43,-5.9 65.8,-17.7 19.37,-11.8 34.52,-28.5 45.43,-50.1 10.91,-21.6 16.36,-45.99 16.36,-73.15 0,-27.17 -5.45,-51.44 -16.36,-72.82 -10.91,-21.38 -26.06,-37.97 -45.43,-49.77 -19.37,-11.8 -41.3,-17.7 -65.8,-17.7 -24.05,0 -45.76,6.12 -65.13,18.37 -19.37,12.25 -34.52,29.06 -45.43,50.44 -10.91,21.37 -16.36,45.2 -16.36,71.48 0,26.72 5.45,50.77 16.36,72.14 10.91,21.38 26.06,38.19 45.43,50.44 19.37,12.25 41.08,18.37 65.13,18.37z"/>
  <path class="fil1 str0" d="M3529.38 3801.14l347.01 0c36.63,-0.01 66.33,29.69 66.33,66.31l-0.01 347.01c0.01,36.61 -29.69,66.31 -66.31,66.31l-347.02 0.01c-36.61,-0.01 -66.31,-29.71 -66.31,-66.33l-0.01 -346.99c0.01,-36.63 29.71,-66.33 66.33,-66.33z"/>
  <path class="fil2 str1" d="M3576.44 3871.34l104.51 0 164.56 166.7 -164.56 166.7 -104.51 0 164.56 -166.7 -164.56 -166.7zm52.25 0m134.54 83.34m0 166.71m-134.54 83.35m30.03 -83.35m0 -166.71z"/>
  <path class="fil1 str0" d="M3987.06 3313.86l169.06 0c17.85,-0.01 32.32,14.46 32.32,32.3l-0.01 169.07c0.01,17.83 -14.46,32.3 -32.3,32.3l-169.07 0.01c-17.83,-0.01 -32.3,-14.48 -32.3,-32.32l-0.01 -169.05c0.01,-17.85 14.48,-32.32 32.32,-32.32z"/>
  <path class="fil2 str1" d="M4009.99 3348.06l50.92 0 80.17 81.22 -80.17 81.21 -50.92 0 80.17 -81.21 -80.17 -81.22zm25.46 0m65.54 40.61m0 81.21m-65.54 40.61m14.62 -40.61m0 -81.21z"/>
  <path class="fil1 str0" d="M3987.68 3309.42l172.26 0c18.19,-0.01 32.94,14.74 32.94,32.92l-0.01 172.27c0.01,18.17 -14.74,32.92 -32.92,32.92l-172.27 0.01c-18.17,-0.01 -32.92,-14.76 -32.92,-32.94l-0.01 -172.25c0.01,-18.19 14.76,-32.94 32.94,-32.94z"/>
  <path class="fil2 str1" d="M4011.04 3344.27l51.88 0 81.7 82.76 -81.7 82.76 -51.88 0 81.7 -82.76 -81.7 -82.76zm25.94 0m66.79 41.38m0 82.76m-66.79 41.38m14.91 -41.38m0 -82.76z"/>
  <path class="fil0" d="M4918.9 2921.86l218.63 224.87c-44.02,11.58 -30.37,5.3 -74.39,5.3 -111.19,0 -224.7,-48.65 -312.73,-136.68l0 2.32c-78.77,-78.76 -129.73,-192.27 -129.73,-317.37 0,-125.09 50.96,-236.29 129.73,-315.05l0 2.31c81.08,-83.39 189.96,-132.04 305.78,-132.04 118.15,0 227.03,48.65 305.79,129.73 76.45,78.76 127.41,189.96 127.41,315.05 0,60.23 -20.28,160.38 -41.13,213.66l-253.56 -252.79 -275.8 260.69zm812.53 278.35c109.86,-151.66 156.41,-335.43 156.41,-499.91 0,-224.71 -94.98,-433.2 -243.24,-583.78 -150.57,-150.57 -356.75,-245.55 -588.41,-245.55 -437.83,0 -829.33,335.9 -829.33,829.33 0,479.53 370.65,827.02 829.33,827.02 145.95,0 246.37,-12.93 394.18,-78.24l66.65 90.68 545.94 -8.81 -331.53 -330.74z"/>
  <path class="fil0" d="M7244.39 3497.87l0 -1138.59 -320.74 -4.42 0 645.79c0,301.94 -441.34,328.64 -441.34,-19.51l0 -630.69 -315.41 4.41 0 628.59c0,310.36 64.13,522.94 420.85,526.23 134.3,1.24 244.35,-25.71 332.38,-139.22l8.82 127.41 315.44 0z"/>
  <path class="fil0" d="M8054.73 2320.78c-405.4,0 -568.06,383.94 -567.25,603.42 0.89,239.08 137.72,563.44 531.75,603.12 119.84,12.06 278.52,-56.79 377.46,-154.53l8.82 111.85 319.6 8.82 0 -1143.01 -324.01 -8.82 -4.41 138.54c-81.08,-104.24 -219.18,-159.39 -341.96,-159.39zm70.25 887.59c-187.64,0 -300.42,-150.81 -297.94,-301.36 5.75,-349.48 543.19,-357.73 560.83,0.22 8.21,166.59 -105.36,301.14 -262.89,301.14z"/>
  <polygon class="fil0" points="9024.45,1810.12 9026.65,3493.46 9366.44,3493.46 9362.03,1810.12 "/>
  <polygon class="fil0" points="9986.61,2337.22 9991.02,3489.05 9673.28,3493.46 9677.69,2346.04 "/>
  <path class="fil0" d="M10958.6 3509.01l-11.59 -301.16c-32.43,6.95 -65.13,-3.21 -99.83,-1.64 -96.84,4.4 -133.83,-12.85 -133.83,-128.32l0 -414.04 230.9 -4.41 0 -303.92 -226.49 0 0 -315.13 -319.61 89.76 0 216.55 -190.94 0.01 -4.41 317.14 195.35 0 -4.41 436.09c-3.43,339.75 222.05,407.42 365.63,414.37 60.12,2.9 127.41,6.28 199.23,-5.3z"/>
  <path class="fil0" d="M9633.26 2036.51c0,125.99 104.99,186.89 205.79,184.79 96.58,-2.1 191.08,-63 191.08,-184.79 0,-132.28 -104.99,-195.28 -205.79,-193.18 -96.58,2.11 -191.08,67.2 -191.08,193.18z"/>
  <polygon class="fil0" points="11516.61,2337.22 11521.02,3489.05 11203.28,3493.46 11207.69,2346.04 "/>
  <path class="fil0" d="M11163.26 2036.51c0,125.99 104.99,186.89 205.79,184.79 96.58,-2.1 191.08,-63 191.08,-184.79 0,-132.28 -104.99,-195.28 -205.79,-193.18 -96.58,2.11 -191.08,67.2 -191.08,193.18z"/>
  <path class="fil3" d="M3391.01 3072.45c29.43,-120.3 44.43,-244.18 44.43,-373.56 0,-869.45 -714.33,-1584.19 -1583.78,-1584.19 -869.45,0 -1584.62,714.17 -1584.62,1583.62 0,869.45 712.27,1583.73 1581.72,1583.73 132.27,0 261.56,-15.09 384.31,-45.81 -0.41,-318.65 0.9,-377.65 0.36,-637.32 -115.85,48.87 -240.3,73.22 -373.94,73.22 -535.79,0 -955.25,-423.91 -955.25,-959.7 0,-535.79 433.11,-962.8 960.63,-961.15 527.52,1.65 948.65,424.42 960.22,961.87 2.75,127.8 -25.35,247 -70.27,358.75 74.62,-0.68 548.92,0.54 636.19,0.54z"/>
  <path class="fil4" d="M569.45 686.13l-237.92 0 0 244.69c0,7.9 -1.41,13.26 -4.23,16.09 -2.82,2.82 -8.18,4.23 -16.09,4.23l-5.92 0c-7.91,0 -13.27,-1.41 -16.09,-4.23 -2.82,-2.83 -4.23,-8.19 -4.23,-16.09l0 -441.96c0,-31.05 6.91,-53.48 20.74,-67.31 13.83,-13.83 36.27,-20.75 67.31,-20.75l230.29 0c7.91,0 13.27,1.42 16.09,4.24 2.82,2.82 4.23,8.18 4.23,16.08l0 3.39c0,7.9 -1.41,13.27 -4.23,16.09 -2.82,2.82 -8.18,4.23 -16.09,4.23l-226.06 0c-30.48,0 -45.72,15.24 -45.72,45.72l0 151.56 237.92 0c7.9,0 13.26,1.41 16.08,4.23 2.83,2.82 4.24,8.18 4.24,16.09l0 3.38c0,7.9 -1.41,13.27 -4.24,16.09 -2.82,2.82 -8.18,4.23 -16.08,4.23zm153.25 244.69l0 -509.7c0,-7.9 1.41,-13.26 4.23,-16.08 2.83,-2.82 8.19,-4.24 16.09,-4.24l6.77 0c7.91,0 13.27,1.42 16.09,4.24 2.82,2.82 4.23,8.18 4.23,16.08l0 509.7c0,7.9 -1.41,13.26 -4.23,16.09 -2.82,2.82 -8.18,4.23 -16.09,4.23l-6.77 0c-7.9,0 -13.26,-1.41 -16.09,-4.23 -2.82,-2.83 -4.23,-8.19 -4.23,-16.09zm185.42 0l0 -456.36c0,-53.05 23.42,-79.58 70.27,-79.58 20.32,0 35.98,4.94 46.99,14.81 11.01,9.88 20.74,27.52 29.21,52.92l138.85 418.26c4.52,13.54 9.18,22.72 13.97,27.51 4.8,4.8 11.43,7.2 19.9,7.2 15.81,0 23.71,-11.57 23.71,-34.71l0 -459.75c0,-7.9 1.41,-13.26 4.23,-16.08 2.82,-2.82 8.19,-4.24 16.09,-4.24l5.93 0c7.9,0 13.26,1.42 16.08,4.24 2.82,2.82 4.24,8.18 4.24,16.08l0 456.36c0,28.22 -5.51,48.54 -16.51,60.96 -11.01,12.42 -28.37,18.63 -52.08,18.63 -21.44,0 -37.81,-5.22 -49.1,-15.67 -11.29,-10.44 -21.17,-29.21 -29.64,-56.3l-138 -413.18c-4.52,-13.54 -9.03,-22.86 -13.55,-27.94 -4.51,-5.08 -10.72,-7.62 -18.63,-7.62 -17.49,0 -26.24,12.14 -26.24,36.41l0 458.05c0,7.9 -1.41,13.26 -4.24,16.09 -2.82,2.82 -8.18,4.23 -16.08,4.23l-5.08 0c-7.91,0 -13.27,-1.41 -16.09,-4.23 -2.82,-2.83 -4.23,-8.19 -4.23,-16.09zm813.64 -427.57l121.08 426.72c2.26,8.47 2.4,14.11 0.42,16.94 -1.97,2.82 -7.48,4.23 -16.51,4.23l-3.38 0c-8.47,0 -14.54,-1.41 -18.21,-4.23 -3.67,-2.83 -6.91,-8.47 -9.73,-16.94l-46.57 -164.25 -264.16 0 -46.57 164.25c-2.82,8.47 -6.07,14.11 -9.74,16.94 -3.67,2.82 -9.73,4.23 -18.2,4.23l-3.39 0c-9.03,0 -14.53,-1.41 -16.51,-4.23 -1.97,-2.83 -1.83,-8.47 0.43,-16.94l121.07 -426.72c12.42,-43.46 25.4,-72.53 38.95,-87.21 14.67,-14.67 36.69,-22.01 66.04,-22.01 29.91,0 51.64,7.34 65.19,22.01 14.11,14.12 27.38,43.18 39.79,87.21zm-160.02 -12.7l-65.19 231.99 240.45 0 -65.19 -231.99c-6.21,-21.45 -13.26,-35.98 -21.17,-43.6 -7.9,-7.62 -19.19,-11.43 -33.86,-11.43 -14.68,0 -25.97,3.81 -33.87,11.43 -7.9,7.62 -14.96,22.15 -21.17,43.6zm369.16 372.54l0 -441.97c0,-7.9 1.41,-13.26 4.23,-16.08 2.82,-2.82 8.18,-4.24 16.09,-4.24l5.92 0c7.91,0 13.27,1.42 16.09,4.24 2.82,2.82 4.23,8.18 4.23,16.08l0 440.27c0,30.48 15.24,45.72 45.72,45.72l195.58 0c7.91,0 13.27,1.41 16.09,4.24 2.82,2.82 4.23,8.18 4.23,16.08l0 3.39c0,7.9 -1.41,13.26 -4.23,16.09 -2.82,2.82 -8.18,4.23 -16.09,4.23l-199.81 0c-31.04,0 -53.48,-6.91 -67.31,-20.74 -13.83,-13.83 -20.74,-36.27 -20.74,-67.31zm723.9 -462.29l119.38 0c65.48,0 112.18,13.55 140.12,40.64 27.95,27.1 41.92,70.56 41.92,130.39 0,58.14 -14.4,101.04 -43.19,128.7 -28.78,27.65 -75.07,41.48 -138.85,41.48l-160.87 0 0 188.81c0,7.9 -1.41,13.26 -4.23,16.09 -2.82,2.82 -8.18,4.23 -16.09,4.23l-5.92 0c-7.91,0 -13.27,-1.41 -16.09,-4.23 -2.82,-2.83 -4.23,-8.19 -4.23,-16.09l0 -441.96c0,-31.05 6.91,-53.48 20.74,-67.31 13.83,-13.83 36.27,-20.75 67.31,-20.75zm119.38 44.03l-115.15 0c-30.48,0 -45.72,15.24 -45.72,45.72l0 207.44 160.87 0c52.49,0 88.05,-9.6 106.68,-28.79 19.19,-19.19 28.79,-51.65 28.79,-97.37 0,-46.28 -10.02,-79.02 -30.06,-98.21 -20.04,-19.19 -55.17,-28.79 -105.41,-28.79zm665.49 115.15c0,47.98 -9.74,84.38 -29.21,109.22 -19.48,24.83 -52.08,40.36 -97.8,46.57l132.09 213.36c5.64,9.03 7.62,14.95 5.92,17.78 -1.69,2.82 -7.62,4.23 -17.78,4.23l-3.38 0c-10.16,0 -17.78,-1.41 -22.86,-4.23 -5.09,-2.83 -10.45,-8.75 -16.09,-17.78l-128.7 -210.82 -165.1 0 0 212.51c0,7.9 -1.41,13.26 -4.23,16.09 -2.82,2.82 -8.18,4.23 -16.09,4.23l-5.92 0c-7.91,0 -13.27,-1.41 -16.09,-4.23 -2.82,-2.83 -4.23,-8.19 -4.23,-16.09l0 -441.96c0,-31.05 6.91,-53.48 20.74,-67.31 13.83,-13.83 36.27,-20.75 67.31,-20.75l126.15 0c63.79,0 108.94,12.42 135.47,37.26 26.53,24.83 39.8,65.47 39.8,121.92zm-175.27 -115.15l-121.92 0c-30.48,0 -45.72,15.24 -45.72,45.72l0 183.73 167.64 0c50.24,0 84.39,-9.03 102.45,-27.09 17.5,-17.5 26.25,-46.57 26.25,-87.21 0,-41.21 -8.75,-70.56 -26.25,-88.06 -18.06,-18.06 -52.21,-27.09 -102.45,-27.09zm640.93 293.8l0 -125.31c0,-61.53 -11,-106.12 -33.02,-133.78 -22.01,-27.65 -64.91,-41.48 -128.69,-41.48 -64.35,0 -107.53,13.83 -129.54,41.48 -22.01,27.66 -33.02,72.25 -33.02,133.78l0 125.31c0,59.26 9.88,102.73 29.63,130.38 22.58,30.48 66.89,45.72 132.93,45.72 63.78,0 106.68,-13.83 128.69,-41.48 22.02,-28.23 33.02,-73.1 33.02,-134.62zm-161.71 220.13c-78.46,0 -132.93,-17.78 -163.41,-53.34 -30.48,-36.12 -45.72,-91.72 -45.72,-166.79l0 -125.31c0,-74.51 15.24,-129.54 45.72,-165.1 30.48,-36.13 84.95,-54.19 163.41,-54.19 79.02,0 133.21,18.06 162.56,54.19 30.48,35.56 45.72,90.59 45.72,165.1l0 125.31c0,73.94 -15.24,129.25 -45.72,165.94 -30.48,36.13 -84.67,54.19 -162.56,54.19zm387.78 -537.64l0 430.11c0,63.22 -8.33,114.59 -24.98,154.1 -16.65,39.51 -42.47,71.96 -77.47,97.36 -3.95,2.83 -7.33,4.52 -10.16,5.08 -2.82,0.57 -5.36,-0.14 -7.62,-2.11 -2.25,-1.98 -4.79,-5.22 -7.62,-9.74l-3.38 -4.23c-7.91,-11.29 -7.06,-20.04 2.54,-26.25 28.22,-20.32 48.82,-47.27 61.8,-80.86 12.99,-33.58 19.48,-77.47 19.48,-131.65l0 -431.81c0,-7.9 1.41,-13.26 4.23,-16.08 2.82,-2.82 8.18,-4.24 16.09,-4.24l6.77 0c7.9,0 13.26,1.42 16.09,4.24 2.82,2.82 4.23,8.18 4.23,16.08zm414.86 263.32l-241.3 0 0 176.95c0,30.48 15.24,45.72 45.72,45.72l229.45 0c7.9,0 13.27,1.41 16.09,4.24 2.82,2.82 4.23,8.18 4.23,16.08l0 3.39c0,7.9 -1.41,13.26 -4.23,16.09 -2.82,2.82 -8.19,4.23 -16.09,4.23l-233.68 0c-31.04,0 -53.48,-6.91 -67.31,-20.74 -13.83,-13.83 -20.74,-36.27 -20.74,-67.31l0 -374.23c0,-31.05 6.91,-53.48 20.74,-67.31 13.83,-13.83 36.27,-20.75 67.31,-20.75l233.68 0c7.9,0 13.27,1.42 16.09,4.24 2.82,2.82 4.23,8.18 4.23,16.08l0 3.39c0,7.9 -1.41,13.27 -4.23,16.09 -2.82,2.82 -8.19,4.23 -16.09,4.23l-229.45 0c-30.48,0 -45.72,15.24 -45.72,45.72l0 149.86 241.3 0c7.91,0 13.27,1.41 16.09,4.24 2.82,2.82 4.23,8.18 4.23,16.08l0 3.39c0,7.9 -1.41,13.26 -4.23,16.09 -2.82,2.82 -8.18,4.23 -16.09,4.23zm187.12 -71.12l0 135.47c0,57 12.56,98.92 37.67,125.73 25.12,26.81 65.06,40.21 119.81,40.21 53.06,0 96.52,-8.46 130.38,-25.4 12.99,-6.21 19.48,-0.84 19.48,16.09l0 5.08c0,5.08 -0.85,9.17 -2.54,12.28 -1.7,3.1 -3.53,5.36 -5.51,6.77 -1.97,1.41 -5.78,3.25 -11.43,5.5 -33.3,15.81 -75.63,23.71 -127,23.71 -71.12,0 -123.61,-17.07 -157.48,-51.22 -33.86,-34.15 -50.8,-87.07 -50.8,-158.75l0 -135.47c0,-75.07 16.65,-130.39 49.96,-165.95 33.3,-35.56 85.23,-53.34 155.78,-53.34 22.58,0 41.77,1.41 57.58,4.23 9.59,0.57 16.93,1.98 22.01,4.24 13.55,3.38 24.27,6.77 32.17,10.16l11.01 4.23c8.47,2.82 13.83,5.65 16.09,8.47 2.26,2.82 3.38,8.18 3.38,16.08l0 5.93c0,16.93 -6.49,22.3 -19.47,16.09 -36.12,-16.94 -78.17,-25.4 -126.15,-25.4 -54.19,0 -93.56,13.97 -118.11,41.91 -24.56,27.94 -36.83,72.39 -36.83,133.35zm368.3 -188.81l0 -3.39c0,-7.9 1.41,-13.26 4.23,-16.08 2.83,-2.82 8.19,-4.24 16.09,-4.24l371.69 0c7.9,0 13.26,1.42 16.09,4.24 2.82,2.82 4.23,8.18 4.23,16.08l0 3.39c0,7.9 -1.41,13.27 -4.23,16.09 -2.83,2.82 -8.19,4.23 -16.09,4.23l-162.56 0 0 485.99c0,7.9 -1.41,13.26 -4.24,16.09 -2.82,2.82 -8.18,4.23 -16.08,4.23l-5.93 0c-7.9,0 -13.26,-1.41 -16.09,-4.23 -2.82,-2.83 -4.23,-8.19 -4.23,-16.09l0 -485.99 -162.56 0c-7.9,0 -13.26,-1.41 -16.09,-4.23 -2.82,-2.82 -4.23,-8.19 -4.23,-16.09zm1136.24 135.47c0,47.98 -9.74,84.38 -29.21,109.22 -19.48,24.83 -52.08,40.36 -97.8,46.57l132.09 213.36c5.64,9.03 7.62,14.95 5.92,17.78 -1.69,2.82 -7.62,4.23 -17.78,4.23l-3.38 0c-10.16,0 -17.78,-1.41 -22.86,-4.23 -5.09,-2.83 -10.45,-8.75 -16.09,-17.78l-128.7 -210.82 -165.1 0 0 212.51c0,7.9 -1.41,13.26 -4.23,16.09 -2.82,2.82 -8.18,4.23 -16.09,4.23l-5.92 0c-7.91,0 -13.27,-1.41 -16.09,-4.23 -2.82,-2.83 -4.23,-8.19 -4.23,-16.09l0 -441.96c0,-31.05 6.91,-53.48 20.74,-67.31 13.83,-13.83 36.27,-20.75 67.31,-20.75l126.15 0c63.79,0 108.94,12.42 135.47,37.26 26.53,24.83 39.8,65.47 39.8,121.92zm-175.27 -115.15l-121.92 0c-30.48,0 -45.72,15.24 -45.72,45.72l0 183.73 167.64 0c50.24,0 84.39,-9.03 102.45,-27.09 17.5,-17.5 26.25,-46.57 26.25,-87.21 0,-41.21 -8.75,-70.56 -26.25,-88.06 -18.06,-18.06 -52.21,-27.09 -102.45,-27.09zm574.89 239.61l-241.3 0 0 176.95c0,30.48 15.24,45.72 45.72,45.72l229.45 0c7.9,0 13.27,1.41 16.09,4.24 2.82,2.82 4.23,8.18 4.23,16.08l0 3.39c0,7.9 -1.41,13.26 -4.23,16.09 -2.82,2.82 -8.19,4.23 -16.09,4.23l-233.68 0c-31.04,0 -53.48,-6.91 -67.31,-20.74 -13.83,-13.83 -20.74,-36.27 -20.74,-67.31l0 -374.23c0,-31.05 6.91,-53.48 20.74,-67.31 13.83,-13.83 36.27,-20.75 67.31,-20.75l233.68 0c7.9,0 13.27,1.42 16.09,4.24 2.82,2.82 4.23,8.18 4.23,16.08l0 3.39c0,7.9 -1.41,13.27 -4.23,16.09 -2.82,2.82 -8.19,4.23 -16.09,4.23l-229.45 0c-30.48,0 -45.72,15.24 -45.72,45.72l0 149.86 241.3 0c7.91,0 13.27,1.41 16.09,4.24 2.82,2.82 4.23,8.18 4.23,16.08l0 3.39c0,7.9 -1.41,13.26 -4.23,16.09 -2.82,2.82 -8.18,4.23 -16.09,4.23zm187.12 -71.12l0 135.47c0,57 12.56,98.92 37.67,125.73 25.12,26.81 65.06,40.21 119.81,40.21 53.06,0 96.52,-8.46 130.38,-25.4 12.99,-6.21 19.48,-0.84 19.48,16.09l0 5.08c0,5.08 -0.85,9.17 -2.54,12.28 -1.7,3.1 -3.53,5.36 -5.51,6.77 -1.97,1.41 -5.78,3.25 -11.43,5.5 -33.3,15.81 -75.63,23.71 -127,23.71 -71.12,0 -123.61,-17.07 -157.48,-51.22 -33.86,-34.15 -50.8,-87.07 -50.8,-158.75l0 -135.47c0,-75.07 16.65,-130.39 49.96,-165.95 33.3,-35.56 85.23,-53.34 155.78,-53.34 22.58,0 41.77,1.41 57.58,4.23 9.59,0.57 16.93,1.98 22.01,4.24 13.55,3.38 24.27,6.77 32.17,10.16l11.01 4.23c8.47,2.82 13.83,5.65 16.09,8.47 2.26,2.82 3.38,8.18 3.38,16.08l0 5.93c0,16.93 -6.49,22.3 -19.47,16.09 -36.12,-16.94 -78.17,-25.4 -126.15,-25.4 -54.19,0 -93.56,13.97 -118.11,41.91 -24.56,27.94 -36.83,72.39 -36.83,133.35zm763.69 125.31l0 -125.31c0,-61.53 -11,-106.12 -33.02,-133.78 -22.01,-27.65 -64.91,-41.48 -128.69,-41.48 -64.35,0 -107.53,13.83 -129.54,41.48 -22.01,27.66 -33.02,72.25 -33.02,133.78l0 125.31c0,59.26 9.88,102.73 29.63,130.38 22.58,30.48 66.89,45.72 132.93,45.72 63.78,0 106.68,-13.83 128.69,-41.48 22.02,-28.23 33.02,-73.1 33.02,-134.62zm-161.71 220.13c-78.46,0 -132.93,-17.78 -163.41,-53.34 -30.48,-36.12 -45.72,-91.72 -45.72,-166.79l0 -125.31c0,-74.51 15.24,-129.54 45.72,-165.1 30.48,-36.13 84.95,-54.19 163.41,-54.19 79.02,0 133.21,18.06 162.56,54.19 30.48,35.56 45.72,90.59 45.72,165.1l0 125.31c0,73.94 -15.24,129.25 -45.72,165.94 -30.48,36.13 -84.67,54.19 -162.56,54.19zm325.13 -95.67l0 -374.23c0,-31.05 6.91,-53.48 20.74,-67.31 13.83,-13.83 36.27,-20.75 67.31,-20.75l71.12 0c84.67,0 144.5,15.81 179.49,47.42 34.44,31.04 51.65,87.77 51.65,170.18l0 115.15c0,79.02 -17.5,135.18 -52.49,168.48 -34.43,32.74 -93.98,49.11 -178.65,49.11l-71.12 0c-31.04,0 -53.48,-6.91 -67.31,-20.74 -13.83,-13.83 -20.74,-36.27 -20.74,-67.31zm92.28 44.02l66.89 0c70.56,0 119.1,-12.41 145.63,-37.25 25.4,-24.84 38.1,-70.27 38.1,-136.31l0 -115.15c0,-66.04 -12.7,-111.2 -38.1,-135.47 -25.4,-25.4 -73.94,-38.1 -145.63,-38.1l-66.89 0c-30.48,0 -45.72,15.24 -45.72,45.72l0 370.84c0,30.48 15.24,45.72 45.72,45.72zm702.74 -222.67l-241.3 0 0 176.95c0,30.48 15.24,45.72 45.72,45.72l229.45 0c7.9,0 13.27,1.41 16.09,4.24 2.82,2.82 4.23,8.18 4.23,16.08l0 3.39c0,7.9 -1.41,13.26 -4.23,16.09 -2.82,2.82 -8.19,4.23 -16.09,4.23l-233.68 0c-31.04,0 -53.48,-6.91 -67.31,-20.74 -13.83,-13.83 -20.74,-36.27 -20.74,-67.31l0 -374.23c0,-31.05 6.91,-53.48 20.74,-67.31 13.83,-13.83 36.27,-20.75 67.31,-20.75l233.68 0c7.9,0 13.27,1.42 16.09,4.24 2.82,2.82 4.23,8.18 4.23,16.08l0 3.39c0,7.9 -1.41,13.27 -4.23,16.09 -2.82,2.82 -8.19,4.23 -16.09,4.23l-229.45 0c-30.48,0 -45.72,15.24 -45.72,45.72l0 149.86 241.3 0c7.91,0 13.27,1.41 16.09,4.24 2.82,2.82 4.23,8.18 4.23,16.08l0 3.39c0,7.9 -1.41,13.26 -4.23,16.09 -2.82,2.82 -8.18,4.23 -16.09,4.23zm795.03 -264.16l-112.61 428.41c-10.72,43.47 -23.42,72.53 -38.1,87.21 -14.67,14.68 -37.25,22.01 -67.73,22.01 -30.48,0 -53.06,-7.33 -67.74,-22.01 -14.67,-14.68 -27.37,-43.74 -38.1,-87.21l-111.76 -428.41c-2.25,-7.34 -2.25,-12.42 0,-15.24 2.26,-2.82 7.34,-4.24 15.24,-4.24l7.62 0c7.91,0 13.55,1.27 16.94,3.81 3.38,2.54 6.21,7.77 8.46,15.67l114.3 441.11c5.65,20.89 12.42,35.28 20.32,43.18 7.91,7.91 19.48,11.86 34.72,11.86 15.8,0 27.66,-3.95 35.56,-11.86 7.9,-7.9 14.39,-22.29 19.47,-43.18l115.15 -441.11c2.26,-7.9 5.08,-13.13 8.47,-15.67 3.38,-2.54 9.03,-3.81 16.93,-3.81l7.62 0c7.9,0 12.98,1.42 15.24,4.24 2.26,2.82 2.26,7.9 0,15.24zm91.44 510.54l0 -509.7c0,-7.9 1.41,-13.26 4.23,-16.08 2.83,-2.82 8.19,-4.24 16.09,-4.24l6.77 0c7.91,0 13.27,1.42 16.09,4.24 2.82,2.82 4.23,8.18 4.23,16.08l0 509.7c0,7.9 -1.41,13.26 -4.23,16.09 -2.82,2.82 -8.18,4.23 -16.09,4.23l-6.77 0c-7.9,0 -13.26,-1.41 -16.09,-4.23 -2.82,-2.83 -4.23,-8.19 -4.23,-16.09z"/>
  <path class="fil1 str2" d="M2578.3 3328.21l527.82 0c55.72,-0.02 100.9,45.16 100.9,100.86l-0.02 527.82c0.02,55.69 -45.16,100.86 -100.86,100.86l-527.84 0.02c-55.69,-0.02 -100.86,-45.19 -100.86,-100.89l-0.02 -527.8c0.02,-55.71 45.19,-100.89 100.89,-100.89z"/>
  <path class="fil5 str3" d="M2649.88 3434.98l158.97 0 250.3 253.57 -250.3 253.56 -158.97 0 250.31 -253.56 -250.31 -253.57zm79.47 0m204.65 126.77m0 253.58m-204.65 126.78m45.68 -126.78m0 -253.58z"/>
 </g>
</svg>
